<svg version="1.1" id="圖層_1" xmlns="http://www.w3.org/2000/svg" xmlns:xlink="http://www.w3.org/1999/xlink" x="0px" y="0px"
	 width="72px" height="60px" viewBox="0 0 72 60" enable-background="new 0 0 72 60" xml:space="preserve">
<path fill-rule="evenodd" clip-rule="evenodd" fill="#FFFFFF" stroke="#B19ACA" stroke-width="2" stroke-linecap="round" stroke-linejoin="round" stroke-miterlimit="10" d="
	M10,45.333l8-27l6,14l14-10l-1,14h19l-19,20C37,56.333,19.93,47.043,10,45.333z"/>
<path fill-rule="evenodd" clip-rule="evenodd" fill="none" stroke="#B19ACA" stroke-width="2" stroke-linecap="round" stroke-linejoin="round" stroke-miterlimit="10" d="
	M11.94,37.414l4.47-25.08l7.24,17.97l14.83-12.61l-0.74,17.06L60,30.304l-22.29,25.86c0,0-13.22-7.75-25.09-9.98"/>
<path fill-rule="evenodd" clip-rule="evenodd" fill="none" stroke="#B19ACA" stroke-width="2" stroke-linecap="round" stroke-linejoin="round" stroke-miterlimit="10" d="
	M15,41.333c0,0,17.87,3.63,30.54,14.94"/>
<line fill-rule="evenodd" clip-rule="evenodd" fill="none" stroke="#B19ACA" stroke-width="2" stroke-linecap="round" stroke-linejoin="round" stroke-miterlimit="10" x1="14.11" y1="3.903" x2="15" y2="8.333"/>
<line fill-rule="evenodd" clip-rule="evenodd" fill="none" stroke="#B19ACA" stroke-width="2" stroke-linecap="round" stroke-linejoin="round" stroke-miterlimit="10" x1="41" y1="13.333" x2="44" y2="8.333"/>
<path fill-rule="evenodd" clip-rule="evenodd" fill="none" stroke="#B19ACA" stroke-width="2" stroke-linecap="round" stroke-linejoin="round" stroke-miterlimit="10" d="
	M63,42.333c0,0,7.56,0.13,7,0"/>
<line fill-rule="evenodd" clip-rule="evenodd" fill="none" stroke="#B19ACA" stroke-width="2" stroke-linecap="round" stroke-linejoin="round" stroke-miterlimit="10" x1="55" y1="24.333" x2="62.51" y2="20.874"/>
<line fill-rule="evenodd" clip-rule="evenodd" fill="none" stroke="#B19ACA" stroke-width="2" stroke-linecap="round" stroke-linejoin="round" stroke-miterlimit="10" x1="8.55" y1="22.684" x2="3.25" y2="13.854"/>
</svg>
